<svg width="64" height="64" viewBox="0 0 64 64" fill="none" xmlns="http://www.w3.org/2000/svg">
  <rect x="4" y="4" width="56" height="56" rx="18" fill="url(#gitflow-bg)"/>
  <rect x="6" y="6" width="52" height="52" rx="16" stroke="rgba(255,255,255,0.18)" stroke-width="2"/>
  <path d="M20 20C20 16.6863 22.6863 14 26 14C29.3137 14 32 16.6863 32 20C32 22.4266 30.5598 24.5169 28.486 25.4641V30.4L39.2 30.4C43.0659 30.4 46.2 33.534 46.2 37.4V38.5359C48.2737 39.4831 49.714 41.5734 49.714 44C49.714 47.3137 47.0277 50 43.714 50C40.4003 50 37.714 47.3137 37.714 44C37.714 41.5734 39.1543 39.4831 41.228 38.5359V37.4C41.228 36.2804 40.3196 35.372 39.2 35.372L24.8 35.372C20.934 35.372 17.8 38.506 17.8 42.372V43.5359C19.8737 44.4831 21.314 46.5734 21.314 49C21.314 52.3137 18.6277 55 15.314 55C12.0003 55 9.31403 52.3137 9.31403 49C9.31403 46.5734 10.7543 44.4831 12.828 43.5359V42.372C12.828 35.7593 18.1873 30.4 24.8 30.4H23.514V25.4641C21.4402 24.5169 20 22.4266 20 20Z" fill="white"/>
  <defs>
    <linearGradient id="gitflow-bg" x1="12" y1="10" x2="52" y2="56" gradientUnits="userSpaceOnUse">
      <stop stop-color="#38BDF8"/>
      <stop offset="0.45" stop-color="#22D3EE"/>
      <stop offset="1" stop-color="#6366F1"/>
    </linearGradient>
  </defs>
</svg>
